<svg width="30" height="33" viewBox="0 0 30 33" fill="none" xmlns="http://www.w3.org/2000/svg">
<path d="M18.2708 19.8792C19.2847 18.8667 19.7917 17.6375 19.7917 16.1917C19.7917 14.7458 19.2861 13.516 18.275 12.5021C17.2639 11.4882 16.0347 10.9806 14.5875 10.9792C13.1403 10.9778 11.9104 11.484 10.8979 12.4979C9.88542 13.5118 9.37778 14.7403 9.375 16.1833C9.37222 17.6264 9.87847 18.8562 10.8938 19.8729C11.909 20.8896 13.1375 21.3972 14.5792 21.3958C16.0208 21.3944 17.2507 20.8889 18.2688 19.8792M2.08333 30.7708H27.0833V30.3979C27.0833 29.9021 26.9792 29.4417 26.7708 29.0167C26.5625 28.5917 26.2639 28.2444 25.875 27.975C24.1986 26.7917 22.3931 25.8931 20.4583 25.2792C18.5222 24.6667 16.5236 24.3604 14.4625 24.3604C12.4486 24.3604 10.4958 24.6736 8.60417 25.3C6.7125 25.9264 4.94792 26.8319 3.31042 28.0167C2.90903 28.2847 2.60417 28.6319 2.39583 29.0583C2.1875 29.4847 2.08333 29.9444 2.08333 30.4375V30.7708ZM0 32.8542V10.9792L14.5833 0L29.1667 10.9792V32.8542H0Z" fill="#2E7C8A"/>
</svg>
