<svg width="24" height="30" viewBox="0 0 24 30" fill="none" xmlns="http://www.w3.org/2000/svg">
<path d="M21.6498 25.5208C20.4394 27.3292 19.1561 29.0938 17.2019 29.1229C15.2477 29.1667 14.6207 27.9708 12.404 27.9708C10.1727 27.9708 9.48732 29.0938 7.63524 29.1667C5.72482 29.2396 4.28107 27.2417 3.05607 25.4771C0.562319 21.875 -1.3481 15.2396 1.21857 10.7771C2.48732 8.56042 4.76232 7.16042 7.2269 7.11667C9.09357 7.0875 10.8727 8.38542 12.0248 8.38542C13.1623 8.38542 15.3207 6.825 17.5811 7.05833C18.529 7.10208 21.1832 7.4375 22.8894 9.94583C22.7582 10.0333 19.7248 11.8125 19.754 15.5021C19.7977 19.9062 23.6186 21.3792 23.6623 21.3938C23.6186 21.4958 23.0498 23.4938 21.6498 25.5208ZM13.3227 2.1875C14.3873 0.977083 16.1519 0.0583333 17.6102 0C17.7998 1.70625 17.1144 3.42708 16.0936 4.65208C15.0873 5.89167 13.4248 6.85417 11.7915 6.72292C11.5727 5.04583 12.3894 3.29583 13.3227 2.1875Z" fill="#2E7C8A"/>
</svg>
