<svg width="59" height="59" viewBox="0 0 59 59" fill="none" xmlns="http://www.w3.org/2000/svg">
<path d="M36.8958 30.1872C37.1875 29.8955 37.3333 29.5552 37.3333 29.1663C37.3333 28.7774 37.1875 28.4372 36.8958 28.1455L28.7292 19.9788C28.2431 19.4927 27.7083 19.3712 27.125 19.6143C26.5417 19.8573 26.25 20.3191 26.25 20.9997L26.25 37.333C26.25 38.0136 26.5417 38.4754 27.125 38.7184C27.7083 38.9615 28.2431 38.8399 28.7292 38.3538L36.8958 30.1872ZM58.3333 29.1663C58.3333 33.2011 57.5672 36.9927 56.035 40.5413C54.5028 44.0899 52.4251 47.1768 49.8021 49.8018C47.179 52.4268 44.0922 54.5044 40.5417 56.0347C36.9911 57.5649 33.1994 58.3311 29.1667 58.333C25.1339 58.3349 21.3422 57.5688 17.7917 56.0347C14.2411 54.5005 11.1543 52.4229 8.53125 49.8018C5.9082 47.1806 3.83056 44.0938 2.29833 40.5413C0.766111 36.9888 0 33.1972 0 29.1663C0 25.1355 0.766111 21.3438 2.29833 17.7913C3.83056 14.2388 5.9082 11.152 8.53125 8.53091C11.1543 5.9098 14.2411 3.8312 17.7917 2.29508C21.3422 0.758972 25.1339 -0.00617218 29.1667 -0.000339508C33.1994 0.00549316 36.9911 0.771606 40.5417 2.298C44.0922 3.82439 47.179 5.90202 49.8021 8.53091C52.4251 11.1598 54.5037 14.2466 56.0379 17.7913C57.5721 21.3361 58.3372 25.1277 58.3333 29.1663ZM52.5 29.1663C52.5 22.6524 50.2396 17.1351 45.7188 12.6143C41.1979 8.09342 35.6806 5.833 29.1667 5.833C22.6528 5.833 17.1354 8.09342 12.6146 12.6143C8.09375 17.1351 5.83333 22.6524 5.83333 29.1663C5.83333 35.6802 8.09375 41.1976 12.6146 45.7184C17.1354 50.2393 22.6528 52.4997 29.1667 52.4997C35.6806 52.4997 41.1979 50.2393 45.7188 45.7184C50.2396 41.1976 52.5 35.6802 52.5 29.1663Z" fill="#3B4B5C"/>
</svg>
