<svg width="59" height="59" viewBox="0 0 59 59" fill="none" xmlns="http://www.w3.org/2000/svg">
<path d="M21.4377 28.1458C21.146 28.4375 21.0002 28.7778 21.0002 29.1667C21.0002 29.5556 21.146 29.8958 21.4377 30.1875L29.6043 38.3542C30.0904 38.8403 30.6252 38.9618 31.2085 38.7188C31.7918 38.4757 32.0835 38.0139 32.0835 37.3333V21C32.0835 20.3194 31.7918 19.8576 31.2085 19.6146C30.6252 19.3715 30.0904 19.4931 29.6043 19.9792L21.4377 28.1458ZM0.000160217 29.1667C0.000160217 25.1319 0.766273 21.3403 2.2985 17.7917C3.83072 14.2431 5.90835 11.1563 8.53141 8.53125C11.1545 5.90625 14.2413 3.82862 17.7918 2.29834C21.3424 0.76806 25.1341 0.00194814 29.1668 3.69198e-06C33.1996 -0.00194075 36.9913 0.764171 40.5418 2.29834C44.0924 3.8325 47.1792 5.91014 49.8022 8.53125C52.4253 11.1524 54.5029 14.2392 56.0352 17.7917C57.5674 21.3442 58.3335 25.1358 58.3335 29.1667C58.3335 33.1975 57.5674 36.9892 56.0352 40.5417C54.5029 44.0942 52.4253 47.181 49.8022 49.8021C47.1792 52.4232 44.0924 54.5018 40.5418 56.0379C36.9913 57.574 33.1996 58.3392 29.1668 58.3333C25.1341 58.3275 21.3424 57.5614 17.7918 56.035C14.2413 54.5086 11.1545 52.431 8.53141 49.8021C5.90835 47.1732 3.82975 44.0864 2.29558 40.5417C0.761414 36.9969 -0.00372696 33.2053 0.000160217 29.1667ZM5.8335 29.1667C5.8335 35.6806 8.09391 41.1979 12.6147 45.7188C17.1356 50.2396 22.6529 52.5 29.1668 52.5C35.6807 52.5 41.1981 50.2396 45.7189 45.7188C50.2397 41.1979 52.5002 35.6806 52.5002 29.1667C52.5002 22.6528 50.2397 17.1354 45.7189 12.6146C41.1981 8.09375 35.6807 5.83334 29.1668 5.83334C22.6529 5.83334 17.1356 8.09375 12.6147 12.6146C8.09391 17.1354 5.8335 22.6528 5.8335 29.1667Z" fill="black"/>
</svg>
