<svg width="9" height="11" viewBox="0 0 9 11" fill="none" xmlns="http://www.w3.org/2000/svg">
<path d="M0.584412 0.00107763C0.503815 -0.00397497 0.423094 0.00878267 0.347983 0.0384443C0.272873 0.0681059 0.205216 0.113944 0.149818 0.172702C0.0944198 0.231459 0.0526407 0.301696 0.0274481 0.378421C0.00225552 0.455146 -0.00573238 0.536477 0.00405186 0.616638L0.835322 9.53621C0.888452 9.96939 1.40039 10.1712 1.73468 9.89074L3.48885 8.46822L4.27535 9.83057C4.72767 10.614 5.44531 10.8065 6.22873 10.3542C7.01215 9.90185 7.20443 9.18399 6.75211 8.40057L5.96836 7.04317L8.04692 6.24633C8.457 6.09706 8.53829 5.55267 8.18992 5.2901L0.880752 0.110418C0.794757 0.0457597 0.691796 0.00774404 0.584412 0.00107763Z" fill="#2B7C8A"/>
</svg>
