<svg width="10" height="10" viewBox="0 0 10 10" fill="none" xmlns="http://www.w3.org/2000/svg">
<path d="M9.26572 0.0183332C9.34376 0.0390998 9.41627 0.0767968 9.4781 0.128746C9.53993 0.180696 9.58956 0.245623 9.62346 0.318915C9.65737 0.392208 9.67472 0.472068 9.67428 0.552822C9.67384 0.633576 9.65562 0.713243 9.62092 0.786163L6.00403 8.98176C5.81628 9.37574 5.26675 9.40482 5.03866 9.03279L3.82613 7.12742L2.64821 8.17004C1.9708 8.76959 1.22915 8.72458 0.629605 8.04717C0.0300568 7.36977 0.0753442 6.62798 0.752753 6.02843L1.9265 4.98963L0.207913 3.57478C-0.133666 3.30317 -0.0381264 2.7611 0.375529 2.62255L8.95 0.0280561C9.05206 -0.00599435 9.16177 -0.00939758 9.26572 0.0183332Z" fill="#2B7C8A"/>
</svg>
