<svg width="34" height="34" viewBox="0 0 34 34" fill="none" xmlns="http://www.w3.org/2000/svg">
<path d="M33.9987 31.7776C33.9987 32.0429 33.8493 32.2862 33.5505 32.5073C33.2517 32.7285 32.7924 32.9109 32.1726 33.0546C31.5528 33.1984 30.9165 33.3311 30.2635 33.4527C29.6105 33.5743 28.7749 33.6683 27.7568 33.7346C26.7386 33.801 25.8532 33.8507 25.1006 33.8839C24.348 33.9171 23.3796 33.9447 22.1954 33.9668C21.0112 33.9889 20.1148 34 19.5061 34H14.4926L11.8033 33.9668L8.8981 33.8839L6.24195 33.7346L3.73521 33.4527L1.8261 33.0546L0.448225 32.5073L0 31.7776C0.0442691 29.8315 1.26167 28.1122 3.6522 26.6195C6.04274 25.1268 9.07517 24.1372 12.7495 23.6507V22.5561C11.5985 22.0475 10.6025 21.3288 9.76135 20.4C8.92023 19.4712 8.2562 18.3821 7.76923 17.1327C7.28227 15.8833 6.92812 14.5454 6.70678 13.119C6.48543 11.6927 6.37476 10.1502 6.37476 8.49171C6.37476 7.07642 6.65144 5.81593 7.2048 4.71024C7.75817 3.60455 8.52181 2.71447 9.49573 2.04C10.4697 1.36553 11.5874 0.856911 12.8491 0.514146C14.1108 0.171382 15.4942 0 16.9994 0C18.5045 0 19.8879 0.171382 21.1496 0.514146C22.4113 0.856911 23.5291 1.36553 24.503 2.04C25.4769 2.71447 26.2405 3.60455 26.7939 4.71024C27.3473 5.81593 27.6239 7.07642 27.6239 8.49171C27.6239 16.2315 25.499 20.9418 21.2492 22.6224V23.6507C24.9235 24.1372 27.956 25.1268 30.3465 26.6195C32.737 28.1122 33.9544 29.8315 33.9987 31.7776Z" fill="black"/>
</svg>
