<svg width="59" height="49" viewBox="0 0 59 49" fill="none" xmlns="http://www.w3.org/2000/svg">
<path d="M27.3663 27.575H41.5437L40.1159 18.0589C40.0529 17.6393 39.8414 17.2562 39.5199 16.9793C39.1983 16.7024 38.7881 16.5501 38.3637 16.55H6.76609C6.34161 16.5499 5.93118 16.7021 5.60946 16.979C5.28774 17.2559 5.07613 17.6391 5.01312 18.0589L0.81968 46.0152C0.781829 46.2673 0.798847 46.5247 0.869572 46.7696C0.940296 47.0146 1.06306 47.2414 1.22948 47.4346C1.3959 47.6278 1.60205 47.7828 1.83386 47.889C2.06567 47.9952 2.31767 48.0502 2.57265 48.0501H25.7149M27.3663 27.575H25.7149C25.2972 27.575 24.8966 27.741 24.6012 28.0364C24.3059 28.3317 24.1399 28.7323 24.1399 29.15V46.4751C24.1399 46.8928 24.3059 47.2934 24.6012 47.5887C24.8966 47.8841 25.2972 48.0501 25.7149 48.0501M27.3663 27.575H55.6399C56.0576 27.575 56.4582 27.741 56.7536 28.0364C57.049 28.3317 57.2149 28.7323 57.2149 29.15V46.4751C57.2149 46.8928 57.049 47.2934 56.7536 47.5887C56.4582 47.8841 56.0576 48.0501 55.6399 48.0501H25.7149M32.0149 22.85V10.25C32.0149 5.03129 27.7837 0.800049 22.5649 0.800049C17.3462 0.800049 13.1149 5.03129 13.1149 10.25V22.85M32.8024 33.875V41.7501H48.5524V33.875" stroke="#888E93" stroke-width="1.6" stroke-linecap="round" stroke-linejoin="round"/>
</svg>
