<svg width="76" height="76" viewBox="0 0 76 76" fill="none" xmlns="http://www.w3.org/2000/svg">
<path d="M60.1667 6.3335V15.8335H69.6667M42.4333 33.5668L69.6667 6.3335" stroke="#3B4B5C" stroke-width="5" stroke-linecap="round" stroke-linejoin="round"/>
<path d="M38 44.3337C41.4978 44.3337 44.3333 41.4981 44.3333 38.0003C44.3333 34.5025 41.4978 31.667 38 31.667C34.5022 31.667 31.6666 34.5025 31.6666 38.0003C31.6666 41.4981 34.5022 44.3337 38 44.3337Z" stroke="#3B4B5C" stroke-width="5" stroke-linecap="round" stroke-linejoin="round"/>
<path d="M38.95 19H38C34.2422 19 30.5687 20.1143 27.4442 22.2021C24.3196 24.2898 21.8844 27.2572 20.4463 30.729C19.0082 34.2008 18.632 38.0211 19.3651 41.7067C20.0982 45.3924 21.9078 48.7778 24.565 51.435C27.2222 54.0922 30.6077 55.9018 34.2933 56.6349C37.9789 57.368 41.7992 56.9918 45.271 55.5537C48.7428 54.1156 51.7102 51.6804 53.7979 48.5558C55.8857 45.4313 57 41.7578 57 38V37.05" stroke="#3B4B5C" stroke-width="5" stroke-linecap="round" stroke-linejoin="round"/>
<path d="M47.5 7.9167C40.7868 5.80926 33.5607 6.0143 26.9777 8.499C20.3948 10.9837 14.8354 15.6045 11.189 21.6222C7.54252 27.6398 6.01972 34.7066 6.86417 41.692C7.70862 48.6774 10.8715 55.1777 15.8469 60.1531C20.8223 65.1285 27.3226 68.2914 34.308 69.1359C41.2934 69.9803 48.3602 68.4575 54.3779 64.8111C60.3955 61.1646 65.0163 55.6052 67.501 49.0223C69.9857 42.4394 70.1908 35.2133 68.0833 28.5M16.7833 61.4334L12.6667 69.6667M59.2167 61.4334L63.3333 69.6667" stroke="#3B4B5C" stroke-width="5" stroke-linecap="round" stroke-linejoin="round"/>
</svg>
