<svg width="53" height="53" viewBox="0 0 53 53" fill="none" xmlns="http://www.w3.org/2000/svg">
<path d="M50.6667 26.0833C50.6667 12.506 39.6607 1.5 26.0833 1.5C12.506 1.5 1.5 12.506 1.5 26.0833C1.5 39.6607 12.506 50.6667 26.0833 50.6667C28.1533 50.6667 31 50.9518 31 48.2083C31 46.7112 30.2207 45.5558 29.4488 44.4077C28.318 42.7287 27.1945 41.0669 28.5417 38.375C30.1814 35.098 32.9126 35.098 37.1016 35.098C39.1936 35.098 41.652 35.098 44.5208 34.6875C49.6858 33.95 50.6667 30.7738 50.6667 26.0833Z" stroke="#3B4B5C" stroke-width="3"/>
<path d="M13.7916 33.4637L13.8145 33.4585" stroke="#3B4B5C" stroke-width="3" stroke-linecap="round" stroke-linejoin="round"/>
<path d="M19.9375 21.1665C21.9741 21.1665 23.625 19.5156 23.625 17.479C23.625 15.4425 21.9741 13.7915 19.9375 13.7915C17.9009 13.7915 16.25 15.4425 16.25 17.479C16.25 19.5156 17.9009 21.1665 19.9375 21.1665Z" stroke="#3B4B5C" stroke-width="3"/>
<path d="M37.1459 23.625C39.1824 23.625 40.8334 21.9741 40.8334 19.9375C40.8334 17.9009 39.1824 16.25 37.1459 16.25C35.1093 16.25 33.4584 17.9009 33.4584 19.9375C33.4584 21.9741 35.1093 23.625 37.1459 23.625Z" stroke="#3B4B5C" stroke-width="3"/>
</svg>
