<svg width="52" height="53" viewBox="0 0 52 53" fill="none" xmlns="http://www.w3.org/2000/svg">
<path d="M43.0561 1.5V8.875H50.4311M29.2894 22.6417L50.4311 1.5" stroke="#3B4B5C" stroke-width="3" stroke-linecap="round" stroke-linejoin="round"/>
<path d="M25.8477 30.9998C28.5631 30.9998 30.7644 28.7986 30.7644 26.0832C30.7644 23.3678 28.5631 21.1665 25.8477 21.1665C23.1323 21.1665 20.931 23.3678 20.931 26.0832C20.931 28.7986 23.1323 30.9998 25.8477 30.9998Z" stroke="#3B4B5C" stroke-width="3" stroke-linecap="round" stroke-linejoin="round"/>
<path d="M26.5852 11.3335H25.8477C22.9304 11.3335 20.0786 12.1986 17.653 13.8193C15.2274 15.4401 13.3368 17.7437 12.2204 20.4389C11.104 23.1341 10.8119 26.0999 11.3811 28.9611C11.9502 31.8223 13.355 34.4505 15.4178 36.5133C17.4807 38.5761 20.1089 39.9809 22.9701 40.5501C25.8313 41.1192 28.797 40.8271 31.4922 39.7107C34.1875 38.5943 36.4911 36.7038 38.1118 34.2782C39.7326 31.8525 40.5977 29.0008 40.5977 26.0835V25.346" stroke="#3B4B5C" stroke-width="3" stroke-linecap="round" stroke-linejoin="round"/>
<path d="M33.2227 2.72905C28.0111 1.09302 22.4014 1.25219 17.291 3.18111C12.1805 5.11002 7.86469 8.69722 5.03389 13.3688C2.20309 18.0404 1.02092 23.5265 1.67648 28.9494C2.33204 34.3722 4.78746 39.4185 8.64993 43.281C12.5124 47.1435 17.5587 49.5989 22.9816 50.2545C28.4045 50.91 33.8905 49.7278 38.5621 46.897C43.2337 44.0662 46.8209 39.7504 48.7498 34.64C50.6788 29.5295 50.8379 23.9198 49.2019 18.7082M9.37689 44.2749L6.18105 50.6665M42.3186 44.2749L45.5144 50.6665" stroke="#3B4B5C" stroke-width="3" stroke-linecap="round" stroke-linejoin="round"/>
</svg>
