<svg width="10" height="10" viewBox="0 0 10 10" fill="none" xmlns="http://www.w3.org/2000/svg">
<path fill-rule="evenodd" clip-rule="evenodd" d="M7.41125 4.23431C7.31457 4.13775 7.18352 4.08352 7.04688 4.08352C6.91023 4.08352 6.77918 4.13775 6.6825 4.23431L5.32812 5.58869V0.515625C5.32812 0.378873 5.2738 0.247722 5.1771 0.151023C5.0804 0.0543246 4.94925 0 4.8125 0C4.67575 0 4.5446 0.0543246 4.4479 0.151023C4.3512 0.247722 4.29688 0.378873 4.29688 0.515625V5.58869L2.9425 4.23431C2.84475 4.14323 2.71547 4.09365 2.58189 4.096C2.44831 4.09836 2.32086 4.15248 2.22638 4.24695C2.13191 4.34142 2.0778 4.46887 2.07544 4.60245C2.07309 4.73604 2.12267 4.86532 2.21375 4.96306L4.44812 7.19744L4.8125 7.5625L5.17687 7.19813L7.41125 4.96375C7.45917 4.91587 7.49718 4.85901 7.52311 4.79643C7.54904 4.73385 7.56239 4.66677 7.56239 4.59903C7.56239 4.53129 7.54904 4.46421 7.52311 4.40163C7.49718 4.33905 7.45917 4.2822 7.41125 4.23431ZM1.03125 6.01562C1.03125 5.94791 1.01791 5.88086 0.992 5.8183C0.966088 5.75574 0.928107 5.6989 0.880227 5.65102C0.832347 5.60314 0.775505 5.56516 0.712946 5.53925C0.650388 5.51334 0.583338 5.5 0.515625 5.5C0.447912 5.5 0.380862 5.51334 0.318304 5.53925C0.255745 5.56516 0.198903 5.60314 0.151023 5.65102C0.103143 5.6989 0.0651622 5.75574 0.0392497 5.8183C0.0133371 5.88086 -1.009e-09 5.94791 0 6.01562V8.25C0 8.61467 0.144866 8.96441 0.402728 9.22227C0.660591 9.48013 1.01033 9.625 1.375 9.625H8.25C8.61467 9.625 8.96441 9.48013 9.22227 9.22227C9.48013 8.96441 9.625 8.61467 9.625 8.25V6.01562C9.625 5.87887 9.57067 5.74772 9.47398 5.65102C9.37728 5.55433 9.24613 5.5 9.10938 5.5C8.97262 5.5 8.84147 5.55433 8.74477 5.65102C8.64808 5.74772 8.59375 5.87887 8.59375 6.01562V8.25C8.59375 8.34117 8.55753 8.4286 8.49307 8.49307C8.4286 8.55753 8.34117 8.59375 8.25 8.59375H1.375C1.28383 8.59375 1.1964 8.55753 1.13193 8.49307C1.06747 8.4286 1.03125 8.34117 1.03125 8.25V6.01562Z" fill="#2B7C8A"/>
</svg>
