<svg width="19" height="21" viewBox="0 0 19 21" fill="none" xmlns="http://www.w3.org/2000/svg">
<path fill-rule="evenodd" clip-rule="evenodd" d="M18.75 1.30752C18.75 0.331474 17.7031 -0.32061 16.8219 0.163765C15.6375 0.813765 12.1312 2.70752 10.0323 3.54189C7.58958 4.51168 5.48646 4.87627 3.07604 4.98877C1.40625 5.06585 0 6.41481 0 8.15543V12.3221C0 14.0627 1.40625 15.4117 3.07604 15.4888C3.36076 15.5027 3.64201 15.5197 3.91979 15.5398L3.14479 19.4096C3.09064 19.6806 3.14637 19.962 3.29972 20.192C3.45307 20.4219 3.69148 20.5815 3.9625 20.6356C4.23352 20.6898 4.51495 20.6341 4.74487 20.4807C4.9748 20.3274 5.13439 20.0889 5.18854 19.8179L5.99375 15.7888C7.30937 16.0127 8.61354 16.3721 10.0323 16.9356C12.1312 17.77 15.6365 19.6648 16.8219 20.3138C17.7031 20.7981 18.75 20.1461 18.75 19.17V1.30752ZM6.25 13.72C7.72708 13.9648 9.20104 14.3638 10.8021 15.0002C12.5229 15.6836 15.0583 16.9992 16.6667 17.8606V2.61689C15.0583 3.47835 12.5229 4.79397 10.8021 5.47731C9.20104 6.11272 7.72708 6.51272 6.25 6.75856V13.72ZM4.16667 7.00856C3.83889 7.03356 3.50764 7.05404 3.17292 7.07001C2.54479 7.09918 2.08333 7.59502 2.08333 8.15543V12.3221C2.08333 12.8825 2.54479 13.3783 3.17292 13.4075C3.50833 13.4228 3.83958 13.4436 4.16667 13.47V7.00856Z" fill="#E5F2F7"/>
</svg>
