<svg width="11" height="12" viewBox="0 0 11 12" fill="none" xmlns="http://www.w3.org/2000/svg">
<g clip-path="url(#clip0_1270_878)">
<path d="M4.77355 11.3169C2.29694 10.9174 0.420525 8.50792 0.582775 5.65692C0.734942 2.98017 2.7319 0.801916 5.18559 0.635666C7.79901 0.458666 10.0079 2.50567 10.3739 5.20742C10.4045 5.43867 10.3851 5.6745 10.3173 5.89612C10.2495 6.11774 10.1351 6.31902 9.98342 6.48392L5.94367 10.8909C5.79252 11.0564 5.60801 11.1811 5.40486 11.2551C5.20171 11.3291 4.98552 11.3502 4.77355 11.3169Z" stroke="#2B7C8A" stroke-linecap="round" stroke-linejoin="round"/>
<path d="M3.98796 5.65C4.37348 5.65 4.686 5.16871 4.686 4.575C4.686 3.98129 4.37348 3.5 3.98796 3.5C3.60244 3.5 3.28992 3.98129 3.28992 4.575C3.28992 5.16871 3.60244 5.65 3.98796 5.65Z" stroke="#2B7C8A" stroke-linecap="round" stroke-linejoin="round"/>
<path d="M7.01201 5.65C7.39752 5.65 7.71005 5.16871 7.71005 4.575C7.71005 3.98129 7.39752 3.5 7.01201 3.5C6.62649 3.5 6.31396 3.98129 6.31396 4.575C6.31396 5.16871 6.62649 5.65 7.01201 5.65Z" stroke="#2B7C8A" stroke-linecap="round" stroke-linejoin="round"/>
<path d="M7.71003 6.95898C7.37545 8.11373 6.41249 8.50023 5.58932 8.50023C4.76615 8.50023 3.92649 8.16973 3.46838 6.95898" stroke="#2B7C8A" stroke-linecap="round" stroke-linejoin="round"/>
</g>
<defs>
<clipPath id="clip0_1270_878">
<rect width="11" height="12" fill="white"/>
</clipPath>
</defs>
</svg>
