<svg width="88" height="44" viewBox="0 0 88 44" fill="none" xmlns="http://www.w3.org/2000/svg">
<g clip-path="url(#clip0_528_703)">
<path d="M0 0H3.55005V30H0V0Z" fill="#E5F2F7"/>
<path d="M6.97998 12.5102C6.97998 10.6934 7.70146 8.9511 8.98608 7.66647C10.2707 6.38185 12.0131 5.66016 13.8298 5.66016C15.6466 5.66016 17.389 6.38185 18.6736 7.66647C19.9582 8.9511 20.6799 10.6934 20.6799 12.5102V29.9802H17.1299V12.5102C17.1299 11.6349 16.7822 10.7956 16.1633 10.1767C15.5445 9.55783 14.705 9.21014 13.8298 9.21014C12.9546 9.21014 12.1152 9.55783 11.4963 10.1767C10.8775 10.7956 10.5298 11.6349 10.5298 12.5102V29.9802H6.97998V12.5102Z" fill="#E5F2F7"/>
<path d="M34.3499 0H37.9099V26.43H49.3398V29.98H34.3398L34.3499 0Z" fill="#E5F2F7"/>
<path d="M51.48 6H55.0398V30H51.48V6Z" fill="#E5F2F7"/>
<path d="M58.46 12.5098C58.5277 10.737 59.2795 9.05943 60.5576 7.82916C61.8358 6.5989 63.5409 5.91162 65.3149 5.91162C67.089 5.91162 68.7939 6.5989 70.072 7.82916C71.3502 9.05943 72.1022 10.737 72.1699 12.5098V24.2198C72.1699 29.0198 71.5398 34.6998 74.5598 38.7798C75.2768 39.7442 76.1866 40.5488 77.2314 41.1425C78.2763 41.7362 79.4332 42.1059 80.6287 42.2282C81.8241 42.3505 83.0319 42.2226 84.1753 41.8527C85.3187 41.4828 86.3724 40.879 87.2698 40.0797C86.6398 42.1597 84.3599 43.3398 82.1899 43.5398C80.4144 43.6471 78.638 43.3418 77.0002 42.6478C75.3625 41.9538 73.9076 40.89 72.7498 39.5398C70.7442 37.1974 69.4469 34.3323 69.0098 31.2798C68.0098 25.2798 68.6199 18.6998 68.6199 12.5298C68.6199 11.6545 68.2722 10.8152 67.6533 10.1963C67.0345 9.57745 66.195 9.22977 65.3198 9.22977C64.4446 9.22977 63.6052 9.57745 62.9863 10.1963C62.3675 10.8152 62.0198 11.6545 62.0198 12.5298V29.9998H58.46V12.5098Z" fill="#E5F2F7"/>
<path d="M72.0698 17.2698H75.3699C76.2451 17.2698 77.0845 16.9221 77.7034 16.3033C78.3222 15.6844 78.6699 14.845 78.6699 13.9698V7.02979H82.22V13.9698C82.1987 14.9591 81.9483 15.93 81.4885 16.8063C81.0287 17.6825 80.3719 18.4402 79.5698 19.0198C80.3752 19.6077 81.0334 20.3741 81.4932 21.2589C81.9529 22.1436 82.2018 23.1228 82.22 24.1198V31.0198H78.6699V24.1198C78.6726 23.6857 78.589 23.2554 78.4241 22.8538C78.2592 22.4522 78.0162 22.0874 77.7092 21.7804C77.4023 21.4735 77.0373 21.2305 76.6357 21.0656C76.2342 20.9007 75.804 20.8171 75.3699 20.8198H72.0698" fill="#E5F2F7"/>
<path d="M20.6802 16.22H23.9802C24.8554 16.22 25.6946 15.8723 26.3135 15.2534C26.9323 14.6345 27.28 13.7952 27.28 12.92V5.97998H30.8601V12.92C30.8297 13.9005 30.5751 14.8609 30.1157 15.7277C29.6563 16.5944 29.0046 17.3444 28.2102 17.92C29.0156 18.5079 29.6738 19.2742 30.1335 20.159C30.5933 21.0438 30.842 22.023 30.8601 23.02V29.91H27.3101V23.02C27.3127 22.5859 27.2291 22.1555 27.0642 21.754C26.8993 21.3524 26.6563 20.9876 26.3494 20.6806C26.0424 20.3736 25.6777 20.1307 25.2761 19.9658C24.8745 19.8009 24.4441 19.7173 24.01 19.72H20.7102" fill="#E5F2F7"/>
<path d="M79.6544 36.4552L80.2631 37.1183C80.4694 37.343 80.5778 37.6403 80.5648 37.945C80.5517 38.2497 80.4182 38.5368 80.1935 38.7431C79.9688 38.9493 79.6714 39.0578 79.3666 39.0448C79.0619 39.0317 78.775 38.8983 78.5687 38.6736C78.3625 38.4489 78.2539 38.1515 78.2669 37.8468C78.28 37.542 78.4135 37.2549 78.6382 37.0487L79.3012 36.4401C79.3481 36.397 79.4102 36.3744 79.4737 36.3771C79.5373 36.3798 79.5972 36.4077 79.6403 36.4545L79.6544 36.4552Z" fill="#E63721"/>
<path d="M83.3009 36.6217L83.9094 37.2846C84.1157 37.5093 84.2243 37.8068 84.2112 38.1115C84.1982 38.4162 84.0645 38.7032 83.8399 38.9094C83.6152 39.1157 83.3179 39.2243 83.0131 39.2113C82.7084 39.1982 82.4213 39.0647 82.215 38.84C82.0088 38.6153 81.9002 38.3178 81.9133 38.0131C81.9263 37.7084 82.06 37.4214 82.2846 37.2152L82.9477 36.6066C82.9946 36.5635 83.0566 36.5409 83.1202 36.5436C83.1838 36.5463 83.2437 36.5742 83.2868 36.6211L83.3009 36.6217Z" fill="#E63721"/>
</g>
<defs>
<clipPath id="clip0_528_703">
<rect width="87.28" height="43.54" fill="white"/>
</clipPath>
</defs>
</svg>
