<svg width="35" height="35" viewBox="0 0 35 35" fill="none" xmlns="http://www.w3.org/2000/svg">
<path d="M35 30.625H31.1206C31.6675 31.2289 32.0833 31.9011 32.3682 32.6416C32.653 33.3822 32.8011 34.1683 32.8125 35H30.625C30.625 34.3962 30.5111 33.8322 30.2832 33.3082C30.0553 32.7841 29.742 32.3169 29.3433 31.9068C28.9445 31.4966 28.4831 31.1833 27.959 30.9668C27.4349 30.7504 26.8652 30.6364 26.25 30.625C25.6462 30.625 25.0822 30.739 24.5581 30.9668C24.034 31.1947 23.5669 31.508 23.1567 31.9068C22.7466 32.3055 22.4333 32.767 22.2168 33.2911C22.0003 33.8152 21.8864 34.3848 21.875 35H19.6875C19.6875 34.3962 19.5736 33.8322 19.3457 33.3082C19.1178 32.7841 18.8045 32.3169 18.4058 31.9068C18.007 31.4966 17.5456 31.1833 17.0215 30.9668C16.4974 30.7504 15.9277 30.6364 15.3125 30.625C14.7087 30.625 14.1447 30.739 13.6206 30.9668C13.0965 31.1947 12.6294 31.508 12.2192 31.9068C11.8091 32.3055 11.4958 32.767 11.2793 33.2911C11.0628 33.8152 10.9489 34.3848 10.9375 35H8.75C8.75 34.4076 8.82975 33.8265 8.98926 33.2569C9.14876 32.6872 9.37093 32.1574 9.65576 31.6675C9.94059 31.1776 10.2995 30.7219 10.7324 30.3003C11.1654 29.8788 11.6382 29.5313 12.1509 29.2579C11.7635 28.8591 11.4673 28.3977 11.2622 27.8736C11.0571 27.3495 10.9489 26.8083 10.9375 26.25C10.9375 25.4639 11.1312 24.7404 11.5186 24.0796C11.9059 23.4188 12.4414 22.889 13.125 22.4903V17.5C13.125 17.1582 13.1991 16.8335 13.3472 16.5259C13.4953 16.2183 13.7118 15.962 13.9966 15.7569C13.37 14.9252 12.6009 14.2815 11.6895 13.8257C10.778 13.37 9.79818 13.1364 8.75 13.125C7.83854 13.125 6.98975 13.2959 6.20361 13.6377C5.41748 13.9795 4.72249 14.4467 4.11865 15.0391C3.51481 15.6316 3.04199 16.3322 2.7002 17.1412C2.3584 17.9501 2.1875 18.7989 2.1875 19.6875H0C0 18.8558 0.113932 18.0526 0.341797 17.2779C0.569661 16.5031 0.894369 15.7683 1.31592 15.0733C1.73747 14.3783 2.25586 13.7631 2.87109 13.2276C3.48633 12.6921 4.15853 12.2307 4.8877 11.8433C4.0332 11.2281 3.3724 10.459 2.90527 9.53618C2.43815 8.61333 2.19889 7.62212 2.1875 6.56255C2.1875 5.66248 2.3584 4.81368 2.7002 4.01616C3.04199 3.21863 3.50911 2.52365 4.10156 1.9312C4.69401 1.33875 5.389 0.865931 6.18652 0.512741C6.98405 0.159551 7.83854 -0.0113475 8.75 4.57764e-05C9.65007 4.57764e-05 10.4989 0.170944 11.2964 0.512741C12.0939 0.854538 12.7889 1.32166 13.3813 1.91411C13.9738 2.50656 14.4466 3.20724 14.7998 4.01616C15.153 4.82508 15.3239 5.67387 15.3125 6.56255C15.3125 7.62212 15.0789 8.61333 14.6118 9.53618C14.1447 10.459 13.4782 11.2338 12.6123 11.8604C13.387 12.2478 14.0877 12.732 14.7144 13.313C15.341 13.8941 15.8765 14.5606 16.3208 15.3125H22.4219C22.7751 15.3125 23.0827 15.2613 23.3447 15.1587C23.6068 15.0562 23.8517 14.9195 24.0796 14.7486C24.3075 14.5777 24.541 14.4011 24.7803 14.2188C25.0195 14.0365 25.2816 13.8599 25.5664 13.689C25.8512 13.5181 26.1816 13.3871 26.5576 13.2959C26.9336 13.2048 27.3779 13.1478 27.8906 13.125H32.8125C33.1201 13.125 33.4049 13.182 33.667 13.2959C33.929 13.4099 34.1569 13.5637 34.3506 13.7574C34.5443 13.9511 34.7038 14.1846 34.8291 14.4581C34.9544 14.7315 35.0114 15.0163 35 15.3125V30.625ZM8.75 10.9375C9.35384 10.9375 9.91781 10.8236 10.4419 10.5957C10.966 10.3679 11.4331 10.0546 11.8433 9.65581C12.2534 9.25704 12.5667 8.79562 12.7832 8.27153C12.9997 7.74744 13.1136 7.17778 13.125 6.56255C13.125 5.9587 13.0111 5.39474 12.7832 4.87065C12.5553 4.34656 12.242 3.87944 11.8433 3.46928C11.4445 3.05913 10.9831 2.74581 10.459 2.52934C9.9349 2.31287 9.36523 2.19894 8.75 2.18755C8.14616 2.18755 7.58219 2.30148 7.05811 2.52934C6.53402 2.75721 6.06689 3.07052 5.65674 3.46928C5.24658 3.86805 4.93327 4.32947 4.7168 4.85356C4.50033 5.37765 4.38639 5.94731 4.375 6.56255C4.375 7.16639 4.48893 7.73035 4.7168 8.25444C4.94466 8.77853 5.25798 9.24565 5.65674 9.65581C6.0555 10.066 6.51693 10.3793 7.04102 10.5957C7.5651 10.8122 8.13477 10.9262 8.75 10.9375ZM15.3125 28.4375C15.6201 28.4375 15.9049 28.3806 16.167 28.2666C16.429 28.1527 16.6569 27.9989 16.8506 27.8052C17.0443 27.6115 17.2038 27.378 17.3291 27.1045C17.4544 26.8311 17.5114 26.5463 17.5 26.25C17.5 25.9424 17.443 25.6576 17.3291 25.3956C17.2152 25.1335 17.0614 24.9056 16.8677 24.712C16.674 24.5183 16.4404 24.3588 16.167 24.2334C15.8936 24.1081 15.6087 24.0512 15.3125 24.0625C15.0049 24.0625 14.7201 24.1195 14.458 24.2334C14.196 24.3474 13.9681 24.5012 13.7744 24.6949C13.5807 24.8886 13.4212 25.1221 13.2959 25.3956C13.1706 25.669 13.1136 25.9538 13.125 26.25C13.125 26.5577 13.182 26.8425 13.2959 27.1045C13.4098 27.3666 13.5636 27.5944 13.7573 27.7881C13.951 27.9818 14.1846 28.1413 14.458 28.2666C14.7314 28.392 15.0163 28.4489 15.3125 28.4375ZM26.25 28.4375C26.5576 28.4375 26.8424 28.3806 27.1045 28.2666C27.3665 28.1527 27.5944 27.9989 27.7881 27.8052C27.9818 27.6115 28.1413 27.378 28.2666 27.1045C28.3919 26.8311 28.4489 26.5463 28.4375 26.25C28.4375 25.9424 28.3805 25.6576 28.2666 25.3956C28.1527 25.1335 27.9989 24.9056 27.8052 24.712C27.6115 24.5183 27.3779 24.3588 27.1045 24.2334C26.8311 24.1081 26.5462 24.0512 26.25 24.0625C25.9424 24.0625 25.6576 24.1195 25.3955 24.2334C25.1335 24.3474 24.9056 24.5012 24.7119 24.6949C24.5182 24.8886 24.3587 25.1221 24.2334 25.3956C24.1081 25.669 24.0511 25.9538 24.0625 26.25C24.0625 26.5577 24.1195 26.8425 24.2334 27.1045C24.3473 27.3666 24.5011 27.5944 24.6948 27.7881C24.8885 27.9818 25.1221 28.1413 25.3955 28.2666C25.6689 28.392 25.9538 28.4489 26.25 28.4375ZM32.8125 19.6875H27.8906C27.3779 19.6875 26.9336 19.6363 26.5576 19.5337C26.1816 19.4312 25.8512 19.2945 25.5664 19.1236C25.2816 18.9527 25.0252 18.7761 24.7974 18.5938C24.5695 18.4115 24.3359 18.2349 24.0967 18.064C23.8574 17.8931 23.6068 17.7621 23.3447 17.6709C23.0827 17.5798 22.7751 17.5228 22.4219 17.5H15.3125V21.875C15.9163 21.875 16.4803 21.989 17.0044 22.2168C17.5285 22.4447 17.9956 22.758 18.4058 23.1568C18.8159 23.5555 19.1292 24.017 19.3457 24.5411C19.5622 25.0651 19.6761 25.6348 19.6875 26.25C19.6875 26.8083 19.585 27.3495 19.3799 27.8736C19.1748 28.3977 18.8729 28.8591 18.4741 29.2579C19.4198 29.7819 20.1888 30.4883 20.7812 31.377C21.3737 30.4883 22.1427 29.7819 23.0884 29.2579C22.701 28.8591 22.4048 28.3977 22.1997 27.8736C21.9946 27.3495 21.8864 26.8083 21.875 26.25C21.875 25.6462 21.9889 25.0822 22.2168 24.5582C22.4447 24.0341 22.758 23.5669 23.1567 23.1568C23.5555 22.7466 24.0169 22.4333 24.541 22.2168C25.0651 22.0004 25.6348 21.8864 26.25 21.875C26.8538 21.875 27.4178 21.989 27.9419 22.2168C28.466 22.4447 28.9331 22.758 29.3433 23.1568C29.7534 23.5555 30.0667 24.017 30.2832 24.5411C30.4997 25.0651 30.6136 25.6348 30.625 26.25C30.625 26.6374 30.5737 27.0134 30.4712 27.378C30.3687 27.7426 30.2148 28.0957 30.0098 28.4375H32.8125V19.6875ZM32.8125 15.3125H27.8906C27.6286 15.3125 27.395 15.341 27.1899 15.398C26.9849 15.455 26.7912 15.529 26.6089 15.6202C26.4266 15.7113 26.25 15.8252 26.0791 15.962C25.9082 16.0987 25.7259 16.2468 25.5322 16.4063C25.7145 16.5658 25.8911 16.7082 26.062 16.8335C26.2329 16.9589 26.4152 17.0728 26.6089 17.1753C26.8026 17.2779 26.9963 17.3576 27.1899 17.4146C27.3836 17.4716 27.6172 17.5 27.8906 17.5H32.8125V15.3125Z" fill="#E5F2F7"/>
</svg>
