<svg width="24" height="32" viewBox="0 0 24 32" fill="none" xmlns="http://www.w3.org/2000/svg">
<path d="M21.412 30.8067L13.176 24.8173C12.8342 24.5689 12.4225 24.4351 12 24.4351C11.5775 24.4351 11.1658 24.5689 10.824 24.8173L2.588 30.8067C2.43896 30.915 2.26288 30.9801 2.0792 30.9947C1.89552 31.0093 1.71138 30.9728 1.5471 30.8894C1.38283 30.8059 1.2448 30.6787 1.14825 30.5218C1.05171 30.3648 1.0004 30.1843 1 30V3C1 2.46957 1.21071 1.96086 1.58579 1.58579C1.96086 1.21071 2.46957 1 3 1H21C21.5304 1 22.0391 1.21071 22.4142 1.58579C22.7893 1.96086 23 2.46957 23 3V30C22.9996 30.1843 22.9483 30.3648 22.8517 30.5218C22.7552 30.6787 22.6172 30.8059 22.4529 30.8894C22.2886 30.9728 22.1045 31.0093 21.9208 30.9947C21.7371 30.9801 21.561 30.915 21.412 30.8067Z" stroke="black" stroke-width="2" stroke-linecap="round" stroke-linejoin="round"/>
<path d="M12.7067 7.72138L14.372 10.9987H17.208C17.3641 10.9949 17.5178 11.0383 17.6488 11.1232C17.7799 11.2081 17.8823 11.3306 17.9427 11.4746C18.003 11.6186 18.0185 11.7775 17.9871 11.9305C17.9557 12.0835 17.8789 12.2234 17.7667 12.3321L15.1627 14.8947L16.6054 18.2081C16.6699 18.3598 16.6849 18.5281 16.6482 18.6889C16.6116 18.8498 16.5252 18.9949 16.4012 19.1038C16.2773 19.2126 16.1222 19.2796 15.958 19.2952C15.7938 19.3108 15.6289 19.2743 15.4867 19.1907L12 17.2241L8.51335 19.1867C8.37107 19.2693 8.20642 19.3052 8.04267 19.2892C7.87891 19.2732 7.72431 19.2062 7.6007 19.0976C7.47709 18.989 7.3907 18.8443 7.35373 18.684C7.31677 18.5237 7.33109 18.3558 7.39468 18.2041L8.83735 14.8907L6.23335 12.3281C6.12114 12.2194 6.04432 12.0795 6.01292 11.9265C5.98152 11.7735 5.99701 11.6146 6.05736 11.4706C6.11771 11.3266 6.22011 11.2041 6.35119 11.1192C6.48226 11.0343 6.6359 10.9909 6.79202 10.9947H9.62802L11.2934 7.72272C11.3595 7.59206 11.4605 7.48229 11.5853 7.40561C11.71 7.32893 11.8536 7.28833 12 7.28833C12.1465 7.28833 12.29 7.32893 12.4148 7.40561C12.5395 7.48229 12.6406 7.59073 12.7067 7.72138Z" stroke="black" stroke-width="2" stroke-linecap="round" stroke-linejoin="round"/>
</svg>
