<svg width="76" height="76" viewBox="0 0 76 76" fill="none" xmlns="http://www.w3.org/2000/svg">
<path d="M56.9999 22.1667H18.9999V9.5H56.9999V22.1667ZM56.9999 39.5833C57.8971 39.5833 58.6497 39.2793 59.2578 38.6713C59.8657 38.0633 60.1687 37.3118 60.1666 36.4167C60.1645 35.5216 59.8605 34.77 59.2546 34.162C58.6487 33.554 57.8971 33.25 56.9999 33.25C56.1027 33.25 55.3511 33.554 54.7453 34.162C54.1394 34.77 53.8354 35.5216 53.8333 36.4167C53.8311 37.3118 54.1351 38.0644 54.7453 38.6745C55.3554 39.2846 56.1069 39.5876 56.9999 39.5833ZM50.6666 60.1667V47.5H25.3333V60.1667H50.6666ZM56.9999 66.5H18.9999V53.8333H6.33325V34.8333C6.33325 32.1417 7.25686 29.8859 9.10409 28.0662C10.9513 26.2464 13.1944 25.3354 15.8333 25.3333H60.1666C62.8583 25.3333 65.115 26.2443 66.9369 28.0662C68.7588 29.8881 69.6687 32.1438 69.6666 34.8333V53.8333H56.9999V66.5Z" fill="#3B4B5C"/>
</svg>
