<svg width="59" height="59" viewBox="0 0 59 59" fill="none" xmlns="http://www.w3.org/2000/svg">
<path d="M21.4374 28.1458C21.1458 28.4375 20.9999 28.7778 20.9999 29.1667C20.9999 29.5556 21.1458 29.8958 21.4374 30.1875L29.6041 38.3542C30.0902 38.8403 30.6249 38.9618 31.2083 38.7188C31.7916 38.4757 32.0833 38.0139 32.0833 37.3333V21C32.0833 20.3194 31.7916 19.8576 31.2083 19.6146C30.6249 19.3715 30.0902 19.4931 29.6041 19.9792L21.4374 28.1458ZM-8.39233e-05 29.1667C-8.39233e-05 25.1319 0.766029 21.3403 2.29825 17.7917C3.83047 14.2431 5.90811 11.1563 8.53117 8.53125C11.1542 5.90625 14.241 3.82862 17.7916 2.29834C21.3421 0.76806 25.1338 0.00194814 29.1666 3.69198e-06C33.1994 -0.00194075 36.991 0.764171 40.5416 2.29834C44.0921 3.8325 47.1789 5.91014 49.802 8.53125C52.4251 11.1524 54.5027 14.2392 56.0349 17.7917C57.5671 21.3442 58.3333 25.1358 58.3333 29.1667C58.3333 33.1975 57.5671 36.9892 56.0349 40.5417C54.5027 44.0942 52.4251 47.181 49.802 49.8021C47.1789 52.4232 44.0921 54.5018 40.5416 56.0379C36.991 57.574 33.1994 58.3392 29.1666 58.3333C25.1338 58.3275 21.3421 57.5614 17.7916 56.035C14.241 54.5086 11.1542 52.431 8.53117 49.8021C5.90811 47.1732 3.8295 44.0864 2.29533 40.5417C0.761169 36.9969 -0.0039711 33.2053 -8.39233e-05 29.1667ZM5.83325 29.1667C5.83325 35.6806 8.09367 41.1979 12.6145 45.7188C17.1353 50.2396 22.6527 52.5 29.1666 52.5C35.6805 52.5 41.1978 50.2396 45.7187 45.7188C50.2395 41.1979 52.4999 35.6806 52.4999 29.1667C52.4999 22.6528 50.2395 17.1354 45.7187 12.6146C41.1978 8.09375 35.6805 5.83334 29.1666 5.83334C22.6527 5.83334 17.1353 8.09375 12.6145 12.6146C8.09367 17.1354 5.83325 22.6528 5.83325 29.1667Z" fill="#3B4B5C"/>
</svg>
