<svg width="26" height="33" viewBox="0 0 26 33" fill="none" xmlns="http://www.w3.org/2000/svg">
<path d="M12.8333 33.0064C10.5177 31.0313 8.37136 28.8659 6.41667 26.5329C3.48334 23.0294 1.61131e-06 17.8118 1.61131e-06 12.8398C-0.00127054 10.3005 0.750767 7.81799 2.16094 5.70632C3.57111 3.59465 5.57603 1.94878 7.92196 0.976997C10.2679 0.00521898 12.8494 -0.248783 15.3397 0.247136C17.8301 0.743056 20.1173 1.9666 21.912 3.76293C23.1069 4.95251 24.054 6.36725 24.6985 7.92529C25.343 9.48332 25.672 11.1537 25.6667 12.8398C25.6667 17.8118 22.1833 23.0294 19.25 26.5329C17.2953 28.8659 15.1489 31.0312 12.8333 33.0064ZM12.8333 7.33977C11.3746 7.33977 9.9757 7.91923 8.94425 8.95068C7.9128 9.98213 7.33334 11.3811 7.33334 12.8398C7.33334 14.2985 7.9128 15.6974 8.94425 16.7289C9.9757 17.7603 11.3746 18.3398 12.8333 18.3398C14.292 18.3398 15.691 17.7603 16.7224 16.7289C17.7539 15.6974 18.3333 14.2985 18.3333 12.8398C18.3333 11.3811 17.7539 9.98213 16.7224 8.95068C15.691 7.91923 14.292 7.33977 12.8333 7.33977Z" fill="#2E7C8A"/>
</svg>
