<svg width="23" height="23" viewBox="0 0 23 23" fill="none" xmlns="http://www.w3.org/2000/svg">
<path fill-rule="evenodd" clip-rule="evenodd" d="M6.25 5C6.25 3.67392 6.77678 2.40215 7.71447 1.46447C8.65215 0.526784 9.92392 0 11.25 0C12.5761 0 13.8479 0.526784 14.7855 1.46447C15.7232 2.40215 16.25 3.67392 16.25 5C16.25 6.32608 15.7232 7.59785 14.7855 8.53553C13.8479 9.47322 12.5761 10 11.25 10C9.92392 10 8.65215 9.47322 7.71447 8.53553C6.77678 7.59785 6.25 6.32608 6.25 5ZM6.25 12.5C4.5924 12.5 3.00269 13.1585 1.83058 14.3306C0.65848 15.5027 0 17.0924 0 18.75C0 19.7446 0.395088 20.6984 1.09835 21.4017C1.80161 22.1049 2.75544 22.5 3.75 22.5H18.75C19.7446 22.5 20.6984 22.1049 21.4017 21.4017C22.1049 20.6984 22.5 19.7446 22.5 18.75C22.5 17.0924 21.8415 15.5027 20.6694 14.3306C19.4973 13.1585 17.9076 12.5 16.25 12.5H6.25Z" fill="black"/>
</svg>
