<svg width="186" height="93" viewBox="0 0 186 93" fill="none" xmlns="http://www.w3.org/2000/svg">
<g clip-path="url(#clip0_1011_311)">
<path d="M0 0H7.57607V64.0523H0V0Z" fill="#007E7E"/>
<path d="M14.8765 26.7196C14.8765 22.8369 16.4152 19.1133 19.1542 16.3678C21.8931 13.6224 25.608 12.08 29.4814 12.08C33.3549 12.08 37.0697 13.6224 39.8087 16.3678C42.5476 19.1133 44.0864 22.8369 44.0864 26.7196V64.0523H36.5103V26.7196C36.5103 24.851 35.7698 23.059 34.4516 21.7377C33.1334 20.4164 31.3456 19.6741 29.4814 19.6741C27.6173 19.6741 25.8294 20.4164 24.5113 21.7377C23.1931 23.059 22.4526 24.851 22.4526 26.7196V64.0523H14.8765V26.7196Z" fill="#007E7E"/>
<path d="M73.2158 0H80.7919V56.454H105.162V64.0523H73.2158V0Z" fill="#007E7E"/>
<path d="M109.726 12.8113H117.302V64.0523H109.726V12.8113Z" fill="#007E7E"/>
<path d="M124.602 26.7196C124.602 22.8369 126.141 19.1133 128.88 16.3678C131.619 13.6224 135.334 12.08 139.207 12.08C143.081 12.08 146.796 13.6224 149.535 16.3678C152.274 19.1133 153.812 22.8369 153.812 26.7196V51.6322C153.812 61.8838 152.476 74.019 158.903 82.7399C160.428 84.8034 162.365 86.5256 164.591 87.7966C166.817 89.0675 169.284 89.8593 171.832 90.1214C174.381 90.3834 176.956 90.11 179.393 89.3186C181.83 88.5272 184.076 87.2352 185.987 85.525C184.638 89.9726 179.769 92.477 175.153 92.9192C167.641 93.6378 160.069 90.0746 155.038 84.4152C150.669 79.5126 148.12 73.2111 147.068 66.7693C144.972 53.9453 146.219 39.8881 146.219 26.7111C146.219 24.8425 145.479 23.0504 144.161 21.7291C142.842 20.4078 141.055 19.6656 139.19 19.6656C137.326 19.6656 135.538 20.4078 134.22 21.7291C132.902 23.0504 132.162 24.8425 132.162 26.7111V64.0438H124.585L124.602 26.7196Z" fill="#007E7E"/>
<path d="M153.604 36.8862H160.633C162.497 36.8851 164.284 36.1424 165.602 34.8214C166.92 33.5003 167.661 31.7089 167.662 29.8406V15.0181H175.238V29.8406C175.238 34.8708 172.32 38.5317 169.58 40.6365C172.32 42.7625 175.238 46.4022 175.238 51.5259V66.2549H167.662V51.5259C167.67 50.5984 167.494 49.6787 167.143 48.8203C166.793 47.9619 166.275 47.182 165.621 46.5262C164.967 45.8704 164.189 45.3517 163.333 45.0005C162.476 44.6492 161.559 44.4724 160.633 44.4803H153.604" fill="#007E7E"/>
<path d="M44.0864 34.6794H51.1153C52.9795 34.6794 54.7673 33.9371 56.0855 32.6158C57.4036 31.2945 58.1442 29.5024 58.1442 27.6338V12.8113H65.7203V27.6338C65.7203 32.6682 62.8018 36.3249 60.0615 38.4297C62.8018 40.5344 65.7203 44.1954 65.7203 49.3191V64.0523H58.1442V49.3191C58.1509 48.3921 57.9737 47.4731 57.6228 46.6155C57.272 45.7578 56.7544 44.9787 56.1003 44.3235C55.4462 43.6682 54.6686 43.1499 53.8128 42.7987C52.957 42.4475 52.04 42.2704 51.1153 42.2777H44.0864" fill="#007E7E"/>
<path d="M169.539 77.5151L171.119 79.241C171.557 79.7196 171.788 80.353 171.76 81.0019C171.732 81.6509 171.449 82.2623 170.971 82.7015C170.494 83.1408 169.862 83.3719 169.215 83.3441C168.567 83.3164 167.957 83.032 167.519 82.5534C167.081 82.0749 166.85 81.4415 166.878 80.7925C166.906 80.1436 167.189 79.5322 167.667 79.093L169.389 77.5087C169.409 77.4903 169.435 77.4807 169.462 77.4819C169.489 77.483 169.514 77.4949 169.533 77.5148L169.539 77.5151Z" fill="#ED6A6D"/>
<path d="M177.287 77.9053L178.868 79.6312C179.306 80.1097 179.537 80.7431 179.509 81.3921C179.481 82.0411 179.198 82.6524 178.72 83.0917C178.484 83.3091 178.207 83.4779 177.906 83.5881C177.604 83.6984 177.284 83.7481 176.964 83.7343C176.643 83.7206 176.328 83.6437 176.037 83.508C175.746 83.3723 175.485 83.1805 175.268 82.9436C175.051 82.7067 174.883 82.4292 174.773 82.1271C174.663 81.8249 174.613 81.504 174.627 81.1827C174.641 80.8614 174.717 80.5459 174.853 80.2543C174.988 79.9626 175.179 79.7007 175.416 79.4832L177.153 77.8845C177.174 77.8708 177.199 77.8653 177.224 77.8691C177.249 77.873 177.272 77.8858 177.287 77.9053Z" fill="#ED6A6D"/>
</g>
<defs>
<clipPath id="clip0_1011_311">
<rect width="186" height="93" fill="white"/>
</clipPath>
</defs>
</svg>
