<svg width="30" height="24" viewBox="0 0 30 24" fill="none" xmlns="http://www.w3.org/2000/svg">
<path d="M26.25 20.4167H23.3333V7.65625L14.5833 13.125L5.83333 7.65625V20.4167H2.91667V2.91667H4.66667L14.5833 9.11458L24.5 2.91667H26.25M26.25 0H2.91667C1.29792 0 0 1.29792 0 2.91667V20.4167C0 21.1902 0.307291 21.9321 0.854272 22.4791C1.40125 23.026 2.14312 23.3333 2.91667 23.3333H26.25C27.0235 23.3333 27.7654 23.026 28.3124 22.4791C28.8594 21.9321 29.1667 21.1902 29.1667 20.4167V2.91667C29.1667 2.14312 28.8594 1.40125 28.3124 0.854272C27.7654 0.307291 27.0235 0 26.25 0Z" fill="#2E7C8A"/>
</svg>
