<svg width="36" height="29" viewBox="0 0 36 29" fill="none" xmlns="http://www.w3.org/2000/svg">
<path d="M3.6 28.287C2.61 28.287 1.7628 27.9411 1.0584 27.2492C0.354 26.5574 0.0012 25.7247 0 24.7511V3.53588C0 2.56351 0.3528 1.7314 1.0584 1.03955C1.764 0.347694 2.6112 0.00117863 3.6 0H32.4C33.39 0 34.2378 0.346516 34.9434 1.03955C35.649 1.73258 36.0012 2.56469 36 3.53588V24.7511C36 25.7235 35.6478 26.5562 34.9434 27.2492C34.239 27.9423 33.3912 28.2882 32.4 28.287H3.6ZM18 15.9115L32.4 7.07176V3.53588L18 12.3756L3.6 3.53588V7.07176L18 15.9115Z" fill="#2E7C8A"/>
</svg>
