<svg width="68" height="65" viewBox="0 0 68 65" fill="none" xmlns="http://www.w3.org/2000/svg">
<path d="M20 20H48M20 34H41M55 2.5C57.7848 2.5 60.4555 3.60625 62.4246 5.57538C64.3938 7.54451 65.5 10.2152 65.5 13V41C65.5 43.7848 64.3938 46.4555 62.4246 48.4246C60.4555 50.3938 57.7848 51.5 55 51.5H37.5L20 62V51.5H13C10.2152 51.5 7.54451 50.3938 5.57538 48.4246C3.60625 46.4555 2.5 43.7848 2.5 41V13C2.5 10.2152 3.60625 7.54451 5.57538 5.57538C7.54451 3.60625 10.2152 2.5 13 2.5H55Z" stroke="black" stroke-width="5" stroke-linecap="round" stroke-linejoin="round"/>
</svg>
