<svg width="29" height="29" viewBox="0 0 29 29" fill="none" xmlns="http://www.w3.org/2000/svg">
<path d="M11.6823 2.92063C12.3035 0.359792 15.9465 0.359792 16.5677 2.92063C16.6609 3.30533 16.8437 3.66259 17.101 3.96333C17.3584 4.26407 17.6832 4.49979 18.0489 4.6513C18.4146 4.80281 18.8109 4.86582 19.2055 4.83523C19.6002 4.80463 19.982 4.68127 20.32 4.47521C22.5702 3.10437 25.1471 5.67979 23.7763 7.93146C23.5705 8.26929 23.4473 8.65091 23.4168 9.04529C23.3863 9.43968 23.4492 9.83571 23.6006 10.2012C23.7519 10.5667 23.9873 10.8913 24.2877 11.1486C24.5881 11.406 24.945 11.5888 25.3294 11.6823C27.8902 12.3035 27.8902 15.9465 25.3294 16.5677C24.9447 16.6609 24.5874 16.8437 24.2867 17.101C23.9859 17.3584 23.7502 17.6832 23.5987 18.0489C23.4472 18.4146 23.3842 18.8109 23.4148 19.2055C23.4454 19.6002 23.5687 19.982 23.7748 20.32C25.1456 22.5702 22.5702 25.1471 20.3185 23.7763C19.9807 23.5705 19.5991 23.4473 19.2047 23.4168C18.8103 23.3863 18.4143 23.4492 18.0488 23.6006C17.6833 23.7519 17.3587 23.9873 17.1014 24.2877C16.844 24.5881 16.6612 24.945 16.5677 25.3294C15.9465 27.8902 12.3035 27.8902 11.6823 25.3294C11.5891 24.9447 11.4063 24.5874 11.149 24.2867C10.8916 23.9859 10.5668 23.7502 10.2011 23.5987C9.83544 23.4472 9.43913 23.3842 9.04448 23.4148C8.64983 23.4454 8.26797 23.5687 7.93 23.7748C5.67979 25.1456 3.10292 22.5702 4.47375 20.3185C4.67952 19.9807 4.80268 19.5991 4.83321 19.2047C4.86373 18.8103 4.80077 18.4143 4.64944 18.0488C4.49811 17.6833 4.26267 17.3587 3.96227 17.1014C3.66187 16.844 3.30499 16.6612 2.92063 16.5677C0.359792 15.9465 0.359792 12.3035 2.92063 11.6823C3.30533 11.5891 3.66259 11.4063 3.96333 11.149C4.26407 10.8916 4.49979 10.5668 4.6513 10.2011C4.80281 9.83544 4.86582 9.43913 4.83523 9.04448C4.80463 8.64983 4.68127 8.26797 4.47521 7.93C3.10437 5.67979 5.67979 3.10292 7.93146 4.47375C9.38979 5.36042 11.2798 4.57583 11.6823 2.92063Z" stroke="#E5F2F7" stroke-width="2" stroke-linecap="round" stroke-linejoin="round"/>
</svg>
