<svg width="11" height="12" viewBox="0 0 11 12" fill="none" xmlns="http://www.w3.org/2000/svg">
<path d="M10.9374 3.42087L7.86431 0.0683698C7.76394 -0.0411302 7.63194 -0.0163802 7.57075 0.12312L7.15894 1.05912L10.0293 4.19037L10.8872 3.74112C11.0151 3.67437 11.0378 3.52962 10.9374 3.42087ZM6.61031 1.58637L3.78125 1.84362C3.59356 1.86912 3.43681 1.91262 3.3825 2.18037C2.61525 6.20037 0 10.1244 0 10.1244L0.616 10.7964L3.53787 7.60887C3.43302 7.3694 3.40915 7.0972 3.47047 6.84038C3.5318 6.58356 3.67438 6.35867 3.873 6.20544C4.07163 6.05221 4.31352 5.98052 4.55591 6.00304C4.79831 6.02555 5.0256 6.14083 5.19762 6.32849C5.36964 6.51614 5.47531 6.7641 5.49595 7.02853C5.51659 7.29296 5.45087 7.55684 5.31042 7.77352C5.16996 7.99021 4.9638 8.14575 4.72838 8.21265C4.49297 8.27955 4.24345 8.2535 4.02394 8.13912L1.10206 11.3266L1.71806 11.9986C1.71806 11.9986 5.31437 9.14562 8.99938 8.30862C9.24481 8.25012 9.28537 8.07912 9.30875 7.87362L9.54456 4.78737L6.60963 1.58562L6.61031 1.58637Z" fill="#2B7C8A"/>
</svg>
