<svg width="11" height="12" viewBox="0 0 11 12" fill="none" xmlns="http://www.w3.org/2000/svg">
<path d="M7.79223 0.439453L6.75239 1.57383L9.54536 4.6207L10.5852 3.48633C11.1223 2.90039 11.1223 1.95117 10.5852 1.36523L9.73872 0.439453C9.20161 -0.146484 8.33149 -0.146484 7.79438 0.439453H7.79223ZM6.26684 2.10352L1.25884 7.56914C1.0354 7.81289 0.872117 8.11524 0.781882 8.4457L0.0213355 11.2652C-0.0323755 11.4645 0.0170386 11.6777 0.150242 11.823C0.283445 11.9684 0.478953 12.0223 0.659421 11.966L3.24399 11.1363C3.54692 11.0379 3.82407 10.8598 4.04751 10.616L9.05981 5.15039L6.26684 2.10352Z" fill="#2B7C8A"/>
</svg>
