<svg width="30" height="27" viewBox="0 0 30 27" fill="none" xmlns="http://www.w3.org/2000/svg">
<path d="M6.03333 11.3604C8.43333 15.4875 12.3 18.8708 17.0167 20.9708L20.6833 17.7625C21.15 17.3542 21.8 17.2375 22.3833 17.3979C24.25 17.9375 26.25 18.2292 28.3333 18.2292C28.7754 18.2292 29.1993 18.3828 29.5118 18.6563C29.8244 18.9298 30 19.3007 30 19.6875V24.7917C30 25.1784 29.8244 25.5494 29.5118 25.8229C29.1993 26.0964 28.7754 26.25 28.3333 26.25C20.8189 26.25 13.6122 23.638 8.29864 18.9887C2.98511 14.3393 0 8.03349 0 1.45833C0 1.07156 0.175595 0.700626 0.488155 0.427136C0.800716 0.153645 1.22464 0 1.66667 0H7.5C7.94203 0 8.36595 0.153645 8.67851 0.427136C8.99107 0.700626 9.16667 1.07156 9.16667 1.45833C9.16667 3.28125 9.5 5.03125 10.1167 6.66458C10.3 7.175 10.1667 7.74375 9.7 8.15208L6.03333 11.3604Z" fill="#2E7C8A"/>
</svg>
