<svg width="34" height="34" viewBox="0 0 34 34" fill="none" xmlns="http://www.w3.org/2000/svg">
<path d="M32.0833 9.121L17.7933 21.7877C17.488 22.0599 17.0932 22.2103 16.6842 22.2103C16.2751 22.2103 15.8803 22.0599 15.575 21.7877L1.17167 9.18767C1.27722 9.09656 1.39 9.01211 1.51 8.93434L13.9317 0.814337C14.7449 0.282972 15.6953 0 16.6667 0C17.6381 0 18.5885 0.282972 19.4017 0.814337L31.8233 8.93434C31.9133 8.99323 32 9.05434 32.0833 9.121ZM33.3333 12.7377V29.921C33.3333 30.8051 32.9821 31.6529 32.357 32.278C31.7319 32.9031 30.8841 33.2543 30 33.2543H3.33333C2.44928 33.2543 1.60143 32.9031 0.976311 32.278C0.35119 31.6529 0 30.8051 0 29.921V12.751L13.3567 24.2777C14.2725 25.0939 15.4565 25.5449 16.6833 25.5449C17.9101 25.5449 19.0941 25.0939 20.01 24.2777L33.3333 12.7377Z" fill="#2E7C8A"/>
</svg>
