<svg width="59" height="40" viewBox="0 0 59 40" fill="none" xmlns="http://www.w3.org/2000/svg">
<path d="M29.3333 12C27.2116 12 25.1768 12.8429 23.6765 14.3431C22.1762 15.8434 21.3333 17.8783 21.3333 20C21.3333 22.1217 22.1762 24.1566 23.6765 25.6569C25.1768 27.1571 27.2116 28 29.3333 28C31.4551 28 33.4899 27.1571 34.9902 25.6569C36.4905 24.1566 37.3333 22.1217 37.3333 20C37.3333 17.8783 36.4905 15.8434 34.9902 14.3431C33.4899 12.8429 31.4551 12 29.3333 12ZM29.3333 33.3333C25.7971 33.3333 22.4057 31.9286 19.9052 29.4281C17.4048 26.9276 16 23.5362 16 20C16 16.4638 17.4048 13.0724 19.9052 10.5719C22.4057 8.07142 25.7971 6.66667 29.3333 6.66667C32.8696 6.66667 36.2609 8.07142 38.7614 10.5719C41.2619 13.0724 42.6667 16.4638 42.6667 20C42.6667 23.5362 41.2619 26.9276 38.7614 29.4281C36.2609 31.9286 32.8696 33.3333 29.3333 33.3333ZM29.3333 0C16 0 4.61333 8.29333 0 20C4.61333 31.7067 16 40 29.3333 40C42.6667 40 54.0533 31.7067 58.6667 20C54.0533 8.29333 42.6667 0 29.3333 0Z" fill="#3B4B5C"/>
</svg>
