<svg width="51" height="51" viewBox="0 0 51 51" fill="none" xmlns="http://www.w3.org/2000/svg">
<path d="M16.3875 21.6125C13.9069 19.1319 12.6667 16.15 12.6667 12.6667C12.6667 9.18333 13.9069 6.20139 16.3875 3.72083C18.8681 1.24028 21.85 0 25.3333 0C28.8167 0 31.7986 1.24028 34.2792 3.72083C36.7597 6.20139 38 9.18333 38 12.6667C38 16.15 36.7597 19.1319 34.2792 21.6125C31.7986 24.0931 28.8167 25.3333 25.3333 25.3333C21.85 25.3333 18.8681 24.0931 16.3875 21.6125ZM0 50.6667V41.8C0 40.0056 0.462334 38.3568 1.387 36.8537C2.31167 35.3506 3.53822 34.2021 5.06667 33.4083C8.33889 31.7722 11.6639 30.5457 15.0417 29.7287C18.4194 28.9117 21.85 28.5021 25.3333 28.5C28.8167 28.4979 32.2472 28.9074 35.625 29.7287C39.0028 30.5499 42.3278 31.7764 45.6 33.4083C47.1306 34.2 48.3582 35.3484 49.2828 36.8537C50.2075 38.3589 50.6688 40.0077 50.6667 41.8V50.6667H0Z" fill="#E5F2F7"/>
</svg>
