<svg width="177" height="176" viewBox="0 0 177 176" fill="none" xmlns="http://www.w3.org/2000/svg">
<path d="M57.1406 75.075C48.4913 66.4583 44.1667 56.1 44.1667 44C44.1667 31.9 48.4913 21.5417 57.1406 12.925C65.7899 4.30834 76.1875 0 88.3333 0C100.479 0 110.877 4.30834 119.526 12.925C128.175 21.5417 132.5 31.9 132.5 44C132.5 56.1 128.175 66.4583 119.526 75.075C110.877 83.6917 100.479 88 88.3333 88C76.1875 88 65.7899 83.6917 57.1406 75.075ZM0 176V145.2C0 138.967 1.61209 133.239 4.83625 128.018C8.06042 122.797 12.3372 118.807 17.6667 116.05C29.0764 110.367 40.6701 106.106 52.4479 103.268C64.2257 100.43 76.1875 99.0073 88.3333 99C100.479 98.9927 112.441 100.415 124.219 103.268C135.997 106.121 147.59 110.381 159 116.05C164.337 118.8 168.617 122.789 171.841 128.018C175.066 133.247 176.674 138.974 176.667 145.2V176H0Z" fill="black"/>
</svg>
