<svg width="414" height="738" viewBox="0 0 414 738" fill="none" xmlns="http://www.w3.org/2000/svg">
<g opacity="0.5">
<path d="M-147 133.404C-147 60.0242 -86.9551 0 -13.5499 0C59.8554 0 119.9 60.0242 119.9 133.404V360.3C119.9 453.749 107.652 564.368 166.5 643.786C180.437 662.59 198.144 678.283 218.488 689.862C238.833 701.442 261.37 708.654 284.659 711.037C307.949 713.421 331.48 710.925 353.75 703.707C376.02 696.489 396.54 684.709 414 669.119C401.667 709.623 357.179 732.45 315 736.475C246.353 743.034 177.172 710.566 131.219 659.155C91.2645 614.457 67.9646 557.05 58.3631 498.349C39.2304 381.537 50.6763 253.467 50.6763 133.306C50.6763 116.278 43.9096 99.9473 31.8648 87.9067C19.8201 75.8661 3.48398 69.1017 -13.5499 69.1017C-30.5837 69.1017 -46.92 75.8661 -58.9647 87.9067C-71.0094 99.9473 -77.776 116.278 -77.776 133.306V473.593H-147V133.404Z" fill="#E5F2F7"/>
<path d="M118.006 225.998H182.221C199.251 225.998 215.585 219.239 227.634 207.206C239.682 195.172 246.46 178.849 246.479 161.822V26.7143H315.692V161.822C315.692 207.674 288.947 241.029 263.99 260.211C289.003 279.394 315.692 312.734 315.692 359.431V493.68H246.479V359.403C246.545 350.953 244.928 342.575 241.725 334.755C238.521 326.936 233.793 319.832 227.817 313.857C221.841 307.882 214.736 303.156 206.915 299.952C199.094 296.749 190.715 295.133 182.264 295.198H118.048" fill="#E5F2F7"/>
<path d="M263.042 595.859L277.898 612.043C281.899 616.401 284.004 622.17 283.751 628.081C283.498 633.992 280.908 639.56 276.549 643.561C274.391 645.542 271.864 647.078 269.113 648.082C266.361 649.087 263.438 649.539 260.511 649.414C257.585 649.289 254.711 648.588 252.055 647.353C249.399 646.117 247.013 644.37 245.032 642.212C243.051 640.054 241.514 637.527 240.51 634.775C239.506 632.023 239.053 629.101 239.178 626.174C239.304 623.247 240.004 620.374 241.24 617.718C242.476 615.062 244.222 612.675 246.38 610.694L262.544 595.857C262.61 595.797 262.697 595.765 262.787 595.769C262.876 595.773 262.961 595.812 263.021 595.878L263.042 595.859Z" fill="#E6371E"/>
<path d="M333.975 599.282L348.832 615.466C352.825 619.822 354.926 625.584 354.676 631.487C354.425 637.391 351.842 642.953 347.494 646.955C343.136 650.955 337.367 653.061 331.456 652.808C325.545 652.555 319.977 649.964 315.977 645.606C311.98 641.247 309.878 635.479 310.133 629.571C310.388 623.663 312.978 618.098 317.335 614.099L333.498 599.262C333.564 599.201 333.651 599.169 333.741 599.173C333.83 599.177 333.915 599.216 333.975 599.282Z" fill="#E6371E"/>
</g>
</svg>
