<svg width="59" height="59" viewBox="0 0 59 59" fill="none" xmlns="http://www.w3.org/2000/svg">
<path d="M36.8958 30.1877C37.1875 29.896 37.3333 29.5557 37.3333 29.1668C37.3333 28.7779 37.1875 28.4377 36.8958 28.146L28.7292 19.9793C28.2431 19.4932 27.7083 19.3717 27.125 19.6147C26.5417 19.8578 26.25 20.3196 26.25 21.0002L26.25 37.3335C26.25 38.014 26.5417 38.4759 27.125 38.7189C27.7083 38.962 28.2431 38.8404 28.7292 38.3543L36.8958 30.1877ZM58.3333 29.1668C58.3333 33.2015 57.5672 36.9932 56.035 40.5418C54.5028 44.0904 52.4251 47.1772 49.8021 49.8022C47.179 52.4272 44.0922 54.5049 40.5417 56.0352C36.9911 57.5654 33.1994 58.3315 29.1667 58.3335C25.1339 58.3354 21.3422 57.5693 17.7917 56.0352C14.2411 54.501 11.1543 52.4234 8.53125 49.8022C5.9082 47.1811 3.83056 44.0943 2.29833 40.5418C0.766111 36.9893 0 33.1977 0 29.1668C0 25.136 0.766111 21.3443 2.29833 17.7918C3.83056 14.2393 5.9082 11.1525 8.53125 8.5314C11.1543 5.91029 14.2411 3.83168 17.7917 2.29557C21.3422 0.75946 25.1339 -0.0056839 29.1667 0.000148773C33.1994 0.00598145 36.9911 0.772095 40.5417 2.29848C44.0922 3.82487 47.179 5.90251 49.8021 8.5314C52.4251 11.1603 54.5037 14.2471 56.0379 17.7918C57.5721 21.3365 58.3372 25.1282 58.3333 29.1668ZM52.5 29.1668C52.5 22.6529 50.2396 17.1356 45.7188 12.6147C41.1979 8.09391 35.6806 5.83348 29.1667 5.83348C22.6528 5.83348 17.1354 8.09391 12.6146 12.6147C8.09375 17.1356 5.83333 22.6529 5.83333 29.1668C5.83333 35.6807 8.09375 41.1981 12.6146 45.7189C17.1354 50.2397 22.6528 52.5002 29.1667 52.5002C35.6806 52.5002 41.1979 50.2397 45.7188 45.7189C50.2396 41.1981 52.5 35.6807 52.5 29.1668Z" fill="#3B4B5C"/>
</svg>
