<svg width="11" height="13" viewBox="0 0 11 13" fill="none" xmlns="http://www.w3.org/2000/svg">
<path fill-rule="evenodd" clip-rule="evenodd" d="M1.57143 5.57329C1.57143 4.25843 1.88179 3.36143 2.36264 2.79314C2.84429 2.22393 3.6025 1.85714 4.71586 1.85714C5.82921 1.85714 6.58743 2.22393 7.06829 2.79314C7.54914 3.36236 7.86029 4.25843 7.86029 5.57329C7.86029 6.88814 7.54993 7.78514 7.06829 8.35436C6.58664 8.92357 5.82843 9.28943 4.71586 9.28943C3.60329 9.28943 2.84429 8.92357 2.36264 8.35436C1.88179 7.78514 1.57143 6.88907 1.57143 5.57329ZM4.71586 0C3.31336 0 2.10729 0.468929 1.25164 1.47921C0.396 2.4895 0 3.91579 0 5.57421C0 7.23079 0.396786 8.65707 1.25164 9.66736C2.1065 10.6776 3.31336 11.1466 4.71586 11.1466C5.80957 11.1466 6.78464 10.8615 7.56643 10.2551L9.63914 12.7047C9.78733 12.8739 9.9858 12.9675 10.1918 12.9653C10.3978 12.9632 10.5949 12.8656 10.7406 12.6934C10.8862 12.5212 10.9689 12.2883 10.9707 12.0449C10.9725 11.8014 10.8933 11.5668 10.7501 11.3917L8.67822 8.94307C9.1905 8.01822 9.43172 6.86679 9.43172 5.57329C9.43172 3.91579 9.03493 2.49043 8.18007 1.47921C7.32521 0.468 6.11836 0 4.71429 0" fill="#2B7C8A"/>
</svg>
