<svg width="26" height="25" viewBox="0 0 26 25" fill="none" xmlns="http://www.w3.org/2000/svg">
<path d="M9.125 25L8.625 21C8.35417 20.8958 8.09917 20.7708 7.86 20.625C7.62083 20.4792 7.38625 20.3229 7.15625 20.1563L3.4375 21.7188L0 15.7813L3.21875 13.3438C3.19792 13.1979 3.1875 13.0575 3.1875 12.9225V12.0788C3.1875 11.9429 3.19792 11.8021 3.21875 11.6563L0 9.21875L3.4375 3.28125L7.15625 4.84375C7.38542 4.67708 7.625 4.52083 7.875 4.375C8.125 4.22917 8.375 4.10417 8.625 4L9.125 0H16L16.5 4C16.7708 4.10417 17.0263 4.22917 17.2663 4.375C17.5063 4.52083 17.7404 4.67708 17.9688 4.84375L21.6875 3.28125L25.125 9.21875L21.9063 11.6563C21.9271 11.8021 21.9375 11.9429 21.9375 12.0788V12.9213C21.9375 13.0571 21.9167 13.1979 21.875 13.3438L25.0938 15.7813L21.6562 21.7188L17.9688 20.1563C17.7396 20.3229 17.5 20.4792 17.25 20.625C17 20.7708 16.75 20.8958 16.5 21L16 25H9.125ZM12.625 16.875C13.8333 16.875 14.8646 16.4479 15.7188 15.5938C16.5729 14.7396 17 13.7083 17 12.5C17 11.2917 16.5729 10.2604 15.7188 9.40625C14.8646 8.55208 13.8333 8.125 12.625 8.125C11.3958 8.125 10.3592 8.55208 9.515 9.40625C8.67083 10.2604 8.24917 11.2917 8.25 12.5C8.25083 13.7083 8.67292 14.7396 9.51625 15.5938C10.3596 16.4479 11.3958 16.875 12.625 16.875Z" fill="black"/>
</svg>
