<svg width="30" height="29" viewBox="0 0 30 29" fill="none" xmlns="http://www.w3.org/2000/svg">
<path d="M26.25 22.6875V20.625H8.625L9.75 18.5625L27 16.875L30 5.625H6.9375L5.625 0H0V1.875H4.125L8.0625 17.625L5.625 22.5V25.3125C5.625 26.8125 6.9375 28.125 8.4375 28.125C9.9375 28.125 11.25 26.8125 11.25 25.3125C11.25 23.8125 9.9375 22.5 8.4375 22.5H22.5V25.3125C22.5 26.8125 23.8125 28.125 25.3125 28.125C26.8125 28.125 28.125 26.8125 28.125 25.3125C28.125 24 27.375 23.0625 26.25 22.6875Z" fill="black"/>
</svg>
