<svg width="28" height="27" viewBox="0 0 28 27" fill="none" xmlns="http://www.w3.org/2000/svg">
<path d="M21.3969 26.2264C21.1741 26.2263 20.9547 26.172 20.7575 26.0683L13.7492 22.3833L6.7408 26.0683C6.51372 26.1877 6.25777 26.2412 6.00189 26.2227C5.746 26.2042 5.50039 26.1145 5.29282 25.9637C5.08526 25.813 4.92401 25.6071 4.82732 25.3695C4.73063 25.1318 4.70235 24.8719 4.74567 24.619L6.08355 16.8145L0.414422 11.287C0.230983 11.1079 0.101271 10.8811 0.0399331 10.6322C-0.0214048 10.3833 -0.0119258 10.1221 0.0673 9.87831C0.146526 9.63448 0.292343 9.41766 0.488285 9.25233C0.684228 9.087 0.922491 8.97974 1.17617 8.94267L9.0123 7.80417L12.5158 0.703669C12.6425 0.489314 12.8229 0.311683 13.0392 0.18829C13.2555 0.0648958 13.5002 0 13.7492 0C13.9982 0 14.2429 0.0648958 14.4592 0.18829C14.6754 0.311683 14.8558 0.489314 14.9825 0.703669L18.486 7.80417L26.3222 8.94267C26.5761 8.97955 26.8147 9.08676 27.0109 9.25219C27.2071 9.41761 27.3531 9.63464 27.4323 9.87872C27.5116 10.1228 27.521 10.3842 27.4594 10.6333C27.3978 10.8824 27.2678 11.1094 27.0839 11.2884L21.4148 16.8145L22.7527 24.619C22.7865 24.8164 22.7768 25.0189 22.7243 25.2121C22.6718 25.4054 22.5776 25.5848 22.4485 25.7379C22.3194 25.891 22.1584 26.0141 21.9767 26.0984C21.7951 26.1828 21.5972 26.2265 21.3969 26.2264Z" fill="black"/>
</svg>
