<svg width="11" height="13" viewBox="0 0 11 13" fill="none" xmlns="http://www.w3.org/2000/svg">
<path d="M11 1.08333V3.25C11 3.53732 10.9034 3.81287 10.7315 4.01603C10.5596 4.2192 10.3264 4.33333 10.0833 4.33333C9.84022 4.33333 9.60706 4.2192 9.43515 4.01603C9.26324 3.81287 9.16667 3.53732 9.16667 3.25V2.16667H6.41667V10.8333H7.33333C7.57645 10.8333 7.80961 10.9475 7.98151 11.1506C8.15342 11.3538 8.25 11.6293 8.25 11.9167C8.25 12.204 8.15342 12.4795 7.98151 12.6827C7.80961 12.8859 7.57645 13 7.33333 13H3.66667C3.42355 13 3.19039 12.8859 3.01849 12.6827C2.84658 12.4795 2.75 12.204 2.75 11.9167C2.75 11.6293 2.84658 11.3538 3.01849 11.1506C3.19039 10.9475 3.42355 10.8333 3.66667 10.8333H4.58333V2.16667H1.83333V3.25C1.83333 3.53732 1.73676 3.81287 1.56485 4.01603C1.39294 4.2192 1.15978 4.33333 0.916667 4.33333C0.673552 4.33333 0.440394 4.2192 0.268485 4.01603C0.0965771 3.81287 0 3.53732 0 3.25V1.08333C0 0.796016 0.0965771 0.520465 0.268485 0.317301C0.440394 0.114137 0.673552 0 0.916667 0L10.0833 0C10.3264 0 10.5596 0.114137 10.7315 0.317301C10.9034 0.520465 11 0.796016 11 1.08333Z" fill="#2B7C8A"/>
</svg>
