<svg width="27" height="27" viewBox="0 0 27 27" fill="none" xmlns="http://www.w3.org/2000/svg">
<path d="M23.3333 0H2.91667C2.14312 0 1.40125 0.307291 0.854272 0.854272C0.307291 1.40125 0 2.14312 0 2.91667V23.3333C0 24.1069 0.307291 24.8487 0.854272 25.3957C1.40125 25.9427 2.14312 26.25 2.91667 26.25H23.3333C24.1069 26.25 24.8487 25.9427 25.3957 25.3957C25.9427 24.8487 26.25 24.1069 26.25 23.3333V2.91667C26.25 2.14312 25.9427 1.40125 25.3957 0.854272C24.8487 0.307291 24.1069 0 23.3333 0ZM23.3333 23.3333H2.91667V2.91667H23.3333V23.3333ZM8.75 20.4167H5.83333V13.125H8.75V20.4167ZM14.5833 20.4167H11.6667V5.83333H14.5833V20.4167ZM20.4167 20.4167H17.5V10.2083H20.4167V20.4167Z" fill="black"/>
</svg>
