<svg width="41" height="32" viewBox="0 0 41 32" fill="none" xmlns="http://www.w3.org/2000/svg">
<path d="M20.2083 16.0009L38.4517 8.50136M20.2083 16.0009V31M20.2083 16.0009L11.0855 12.2519M38.4517 8.50136C37.8187 7.72153 36.9107 7.07504 35.8191 6.62687L29.8125 4.15729M38.4517 8.50136C39.0732 9.26672 39.4167 10.1472 39.4167 11.0634V20.9384C39.416 21.84 39.0828 22.7253 38.4509 23.5045C37.819 24.2837 36.911 24.929 35.8191 25.3749L23.8059 30.3141C22.7107 30.7641 21.4704 31.0006 20.2083 31M20.2083 31C18.9463 31.0006 17.706 30.7641 16.6107 30.3141L4.59761 25.3749C2.3717 24.4604 1 22.7708 1 20.9384V11.0634C0.999672 10.1633 1.33185 9.27929 1.96268 8.50136M11.0855 12.2519L1.96268 8.50136M11.0855 12.2519L29.8125 4.15729M29.8125 4.15729L23.8059 1.68771C22.7109 1.2371 21.4706 1 20.2083 1C18.946 1 17.7057 1.2371 16.6107 1.68771L4.59761 6.62687C3.50511 7.07481 2.59632 7.72132 1.96268 8.50136" stroke="black" stroke-width="2" stroke-linejoin="round"/>
</svg>
