<svg width="25" height="25" viewBox="0 0 25 25" fill="none" xmlns="http://www.w3.org/2000/svg">
<path d="M14.7366 0C9.56906 0 5.36156 4.2075 5.36156 9.375C5.36156 11.6203 6.14906 13.6781 7.47094 15.2934L0 22.7625L1.34906 24.1125L8.81906 16.6416C10.4873 18.0095 12.5792 18.7548 14.7366 18.75C19.9041 18.75 24.1116 14.5425 24.1116 9.375C24.1116 4.2075 19.9041 0 14.7366 0ZM14.7366 1.875C18.8897 1.875 22.2366 5.22187 22.2366 9.375C22.2366 13.5281 18.8897 16.875 14.7366 16.875C10.5834 16.875 7.23656 13.5281 7.23656 9.375C7.23656 5.22187 10.5834 1.875 14.7366 1.875Z" fill="black"/>
</svg>
