<svg width="34" height="24" viewBox="0 0 34 24" fill="none" xmlns="http://www.w3.org/2000/svg">
<path d="M3.33333 0H30C30.8841 0 31.7319 0.351189 32.357 0.976311C32.9821 1.60143 33.3333 2.44928 33.3333 3.33333V20C33.3333 20.8841 32.9821 21.7319 32.357 22.357C31.7319 22.9821 30.8841 23.3333 30 23.3333H3.33333C2.44928 23.3333 1.60143 22.9821 0.976311 22.357C0.351189 21.7319 0 20.8841 0 20V3.33333C0 2.44928 0.351189 1.60143 0.976311 0.976311C1.60143 0.351189 2.44928 0 3.33333 0ZM26.6667 3.33333H6.66667C6.66667 4.21739 6.31548 5.06523 5.69036 5.69036C5.06524 6.31548 4.21739 6.66667 3.33333 6.66667V16.6667C4.21739 16.6667 5.06524 17.0179 5.69036 17.643C6.31548 18.2681 6.66667 19.1159 6.66667 20H26.6667C26.6667 19.1159 27.0179 18.2681 27.643 17.643C28.2681 17.0179 29.1159 16.6667 30 16.6667V6.66667C29.1159 6.66667 28.2681 6.31548 27.643 5.69036C27.0179 5.06523 26.6667 4.21739 26.6667 3.33333ZM10 6.66667H13.3333V16.6667H10V6.66667ZM20 13.3333C20.442 13.3333 20.866 13.1577 21.1785 12.8452C21.4911 12.5326 21.6667 12.1087 21.6667 11.6667C21.6667 11.2246 21.4911 10.8007 21.1785 10.4882C20.866 10.1756 20.442 10 20 10C19.558 10 19.1341 10.1756 18.8215 10.4882C18.5089 10.8007 18.3333 11.2246 18.3333 11.6667C18.3333 12.1087 18.5089 12.5326 18.8215 12.8452C19.1341 13.1577 19.558 13.3333 20 13.3333ZM20 16.6667C18.6739 16.6667 17.4021 16.1399 16.4645 15.2022C15.5268 14.2645 15 12.9927 15 11.6667C15 10.3406 15.5268 9.06881 16.4645 8.13113C17.4021 7.19345 18.6739 6.66667 20 6.66667C21.3261 6.66667 22.5979 7.19345 23.5355 8.13113C24.4732 9.06881 25 10.3406 25 11.6667C25 12.9927 24.4732 14.2645 23.5355 15.2022C22.5979 16.1399 21.3261 16.6667 20 16.6667Z" fill="black"/>
</svg>
